<svg width="69" height="69" viewBox="0 0 69 69" fill="none" xmlns="http://www.w3.org/2000/svg">
<g id="solar:camera-bold">
<path id="Vector" fill-rule="evenodd" clip-rule="evenodd" d="M28.1117 60.375H40.8883C49.8611 60.375 54.349 60.375 57.5719 58.2619C58.9625 57.3504 60.1602 56.1743 61.0966 54.8004C63.25 51.6379 63.25 47.2305 63.25 38.4215C63.25 29.6096 63.25 25.2051 61.0966 22.0426C60.1602 20.6687 58.9625 19.4925 57.5719 18.5811C55.5019 17.2212 52.9086 16.7354 48.9382 16.5629C47.0436 16.5629 45.4135 15.1541 45.0426 13.3285C44.7592 11.9912 44.0228 10.7929 42.9578 9.93586C41.8929 9.07886 40.5647 8.61583 39.1977 8.625H29.8023C26.9618 8.625 24.5151 10.5944 23.9574 13.3285C23.5865 15.1541 21.9564 16.5629 20.0618 16.5629C16.0943 16.7354 13.501 17.2241 11.4281 18.5811C10.0384 19.4927 8.8417 20.6689 7.90625 22.0426C5.75 25.2051 5.75 29.6096 5.75 38.4215C5.75 47.2305 5.75 51.635 7.90338 54.8004C8.83488 56.1689 10.0309 57.3447 11.4281 58.2619C14.651 60.375 19.1389 60.375 28.1117 60.375ZM34.5 26.6599C27.8846 26.6599 22.5199 31.924 22.5199 38.4186C22.5199 44.9161 27.8846 50.1803 34.5 50.1803C41.1154 50.1803 46.4801 44.9161 46.4801 38.4215C46.4801 31.924 41.1154 26.6599 34.5 26.6599ZM34.5 31.3634C30.5325 31.3634 27.3125 34.523 27.3125 38.4215C27.3125 42.3171 30.5325 45.4768 34.5 45.4768C38.4675 45.4768 41.6875 42.3171 41.6875 38.4215C41.6875 34.523 38.4675 31.3634 34.5 31.3634ZM48.0758 29.0116C48.0758 27.7121 49.1481 26.6599 50.4735 26.6599H53.6648C54.9873 26.6599 56.0625 27.7121 56.0625 29.0116C56.0564 29.641 55.8008 30.2421 55.3517 30.6831C54.9027 31.1241 54.297 31.3687 53.6676 31.3634H50.4735C50.1616 31.3664 49.8522 31.308 49.563 31.1914C49.2737 31.0749 49.0102 30.9025 48.7875 30.6841C48.5649 30.4657 48.3874 30.2056 48.2653 29.9187C48.1432 29.6317 48.0788 29.3235 48.0758 29.0116Z" fill="#3EC6FF"/>
</g>
</svg>
